<mxfile host="65bd71144e">
    <diagram id="K889BccEBwncpvr-h1p_" name="Page-1">
        <mxGraphModel dx="822" dy="611" grid="1" gridSize="10" guides="1" tooltips="1" connect="1" arrows="1" fold="1" page="1" pageScale="1" pageWidth="850" pageHeight="1100" background="#ffffff" math="0" shadow="0">
            <root>
                <mxCell id="0"/>
                <mxCell id="1" parent="0"/>
                <mxCell id="2" value="" style="line;strokeWidth=1;fillColor=#60a917;align=left;verticalAlign=middle;spacingTop=-1;spacingLeft=3;spacingRight=3;rotatable=1;labelPosition=right;points=[];portConstraint=eastwest;strokeColor=#2D7600;rotation=90;fontColor=#ffffff;" parent="1" vertex="1">
                    <mxGeometry x="-20" y="302" width="370" height="8" as="geometry"/>
                </mxCell>
                <mxCell id="3" value="" style="line;strokeWidth=1;align=left;verticalAlign=middle;spacingTop=-1;spacingLeft=3;spacingRight=3;rotatable=1;labelPosition=right;points=[];portConstraint=eastwest;rotation=90;fillColor=#60a917;fontColor=#ffffff;strokeColor=#2D7600;" parent="1" vertex="1">
                    <mxGeometry x="180" y="302" width="370" height="8" as="geometry"/>
                </mxCell>
                <mxCell id="4" value="" style="line;strokeWidth=1;fillColor=#60a917;align=left;verticalAlign=middle;spacingTop=-1;spacingLeft=3;spacingRight=3;rotatable=1;labelPosition=right;points=[];portConstraint=eastwest;strokeColor=#2D7600;rotation=90;fontColor=#ffffff;" parent="1" vertex="1">
                    <mxGeometry x="372.5" y="304.5" width="375" height="8" as="geometry"/>
                </mxCell>
                <mxCell id="5" value="User" style="text;align=center;fontStyle=1;verticalAlign=middle;spacingLeft=3;spacingRight=3;strokeColor=none;rotatable=0;points=[[0,0.5],[1,0.5]];portConstraint=eastwest;fontColor=#0d0d0d;" parent="1" vertex="1">
                    <mxGeometry x="40" y="100" width="80" height="26" as="geometry"/>
                </mxCell>
                <mxCell id="6" value="Device" style="text;align=center;fontStyle=1;verticalAlign=middle;spacingLeft=3;spacingRight=3;strokeColor=none;rotatable=0;points=[[0,0.5],[1,0.5]];portConstraint=eastwest;fontColor=#242323;" parent="1" vertex="1">
                    <mxGeometry x="240" y="100" width="80" height="26" as="geometry"/>
                </mxCell>
                <mxCell id="9" value="Bank (Database)" style="text;align=center;fontStyle=1;verticalAlign=middle;spacingLeft=3;spacingRight=3;rotatable=0;points=[[0,0.5],[1,0.5]];portConstraint=eastwest;fillColor=none;fontColor=#050505;" parent="1" vertex="1">
                    <mxGeometry x="425" y="100" width="80" height="26" as="geometry"/>
                </mxCell>
                <mxCell id="18" value="" style="ellipse;html=1;shape=startState;fillColor=#000000;strokeColor=#ff0000;" parent="1" vertex="1">
                    <mxGeometry x="62" y="120" width="36" height="36" as="geometry"/>
                </mxCell>
                <mxCell id="19" value="" style="edgeStyle=orthogonalEdgeStyle;html=1;verticalAlign=bottom;endArrow=open;endSize=8;strokeColor=#ff0000;" parent="1" source="18" edge="1">
                    <mxGeometry relative="1" as="geometry">
                        <mxPoint x="80" y="170" as="targetPoint"/>
                    </mxGeometry>
                </mxCell>
                <mxCell id="21" value="validate" style="rhombus;whiteSpace=wrap;html=1;fillColor=#ffffc0;strokeColor=#ff0000;gradientColor=#2e2828;" parent="1" vertex="1">
                    <mxGeometry x="440" y="252" width="80" height="40" as="geometry"/>
                </mxCell>
                <mxCell id="22" value="Yes" style="edgeStyle=orthogonalEdgeStyle;html=1;align=left;verticalAlign=bottom;endArrow=open;endSize=8;strokeColor=#ff0000;entryX=1;entryY=0.5;entryDx=0;entryDy=0;exitX=0.5;exitY=1;exitDx=0;exitDy=0;" parent="1" source="21" target="32" edge="1">
                    <mxGeometry x="-0.1905" y="10" relative="1" as="geometry">
                        <mxPoint x="330" y="255.9999999999999" as="targetPoint"/>
                        <mxPoint x="480" y="290" as="sourcePoint"/>
                        <Array as="points">
                            <mxPoint x="480" y="300"/>
                            <mxPoint x="390" y="300"/>
                            <mxPoint x="390" y="280"/>
                        </Array>
                        <mxPoint as="offset"/>
                    </mxGeometry>
                </mxCell>
                <mxCell id="28" value="Insert Username&amp;nbsp;&lt;br&gt;and Password" style="rounded=1;whiteSpace=wrap;html=1;arcSize=40;fontColor=#000000;fillColor=#ffffc0;strokeColor=#ff0000;" parent="1" vertex="1">
                    <mxGeometry x="20" y="170" width="120" height="40" as="geometry"/>
                </mxCell>
                <mxCell id="29" value="" style="edgeStyle=orthogonalEdgeStyle;html=1;verticalAlign=bottom;endArrow=open;endSize=8;strokeColor=#ff0000;entryX=0;entryY=0.5;entryDx=0;entryDy=0;" parent="1" source="28" target="30" edge="1">
                    <mxGeometry relative="1" as="geometry">
                        <mxPoint x="425" y="195" as="targetPoint"/>
                    </mxGeometry>
                </mxCell>
                <mxCell id="30" value="Validate Username&amp;nbsp;&lt;br&gt;and Password" style="rounded=1;whiteSpace=wrap;html=1;arcSize=40;fontColor=#000000;fillColor=#ffffc0;strokeColor=#ff0000;" parent="1" vertex="1">
                    <mxGeometry x="425" y="170" width="120" height="40" as="geometry"/>
                </mxCell>
                <mxCell id="31" value="" style="edgeStyle=orthogonalEdgeStyle;html=1;verticalAlign=bottom;endArrow=open;endSize=8;strokeColor=#ff0000;" parent="1" source="30" edge="1">
                    <mxGeometry relative="1" as="geometry">
                        <mxPoint x="480" y="250" as="targetPoint"/>
                    </mxGeometry>
                </mxCell>
                <mxCell id="32" value="Dashboard" style="rounded=1;whiteSpace=wrap;html=1;arcSize=40;fontColor=#000000;fillColor=#ffffc0;strokeColor=#ff0000;" parent="1" vertex="1">
                    <mxGeometry x="220" y="260" width="120" height="40" as="geometry"/>
                </mxCell>
                <mxCell id="33" value="" style="edgeStyle=orthogonalEdgeStyle;html=1;verticalAlign=bottom;endArrow=open;endSize=8;strokeColor=#ff0000;" parent="1" source="32" target="34" edge="1">
                    <mxGeometry relative="1" as="geometry">
                        <mxPoint x="130" y="260" as="targetPoint"/>
                    </mxGeometry>
                </mxCell>
                <mxCell id="49" style="edgeStyle=none;html=1;entryX=0;entryY=0.5;entryDx=0;entryDy=0;strokeColor=#EB0203;" parent="1" source="34" target="35" edge="1">
                    <mxGeometry relative="1" as="geometry">
                        <Array as="points">
                            <mxPoint x="70" y="340"/>
                        </Array>
                    </mxGeometry>
                </mxCell>
                <mxCell id="34" value="Enter Withdrawl&lt;br&gt;details" style="rounded=1;whiteSpace=wrap;html=1;arcSize=40;fontColor=#000000;fillColor=#ffffc0;strokeColor=#ff0000;" parent="1" vertex="1">
                    <mxGeometry x="10" y="252" width="120" height="40" as="geometry"/>
                </mxCell>
                <mxCell id="50" style="edgeStyle=none;html=1;entryX=0;entryY=0.5;entryDx=0;entryDy=0;strokeColor=#EB0203;" parent="1" source="35" target="38" edge="1">
                    <mxGeometry relative="1" as="geometry"/>
                </mxCell>
                <mxCell id="35" value="Show balance" style="rounded=1;whiteSpace=wrap;html=1;arcSize=40;fontColor=#000000;fillColor=#ffffc0;strokeColor=#ff0000;" parent="1" vertex="1">
                    <mxGeometry x="220" y="320" width="120" height="40" as="geometry"/>
                </mxCell>
                <mxCell id="36" value="" style="edgeStyle=orthogonalEdgeStyle;html=1;verticalAlign=bottom;endArrow=open;endSize=8;strokeColor=#ff0000;entryX=0;entryY=0.5;entryDx=0;entryDy=0;exitX=0;exitY=0.5;exitDx=0;exitDy=0;startArrow=none;" parent="1" source="42" target="28" edge="1">
                    <mxGeometry relative="1" as="geometry">
                        <mxPoint x="270" y="400" as="targetPoint"/>
                    </mxGeometry>
                </mxCell>
                <mxCell id="53" value="Yes" style="edgeStyle=none;html=1;entryX=1;entryY=0.5;entryDx=0;entryDy=0;strokeColor=#EB0203;" parent="1" source="38" target="52" edge="1">
                    <mxGeometry relative="1" as="geometry">
                        <Array as="points">
                            <mxPoint x="540" y="340"/>
                            <mxPoint x="550" y="370"/>
                        </Array>
                    </mxGeometry>
                </mxCell>
                <mxCell id="38" value="Enough" style="rhombus;whiteSpace=wrap;html=1;fillColor=#ffffc0;strokeColor=#ff0000;gradientColor=#2e2828;" parent="1" vertex="1">
                    <mxGeometry x="440" y="320" width="80" height="40" as="geometry"/>
                </mxCell>
                <mxCell id="39" value="No" style="edgeStyle=orthogonalEdgeStyle;html=1;align=left;verticalAlign=top;endArrow=open;endSize=8;strokeColor=#ff0000;entryX=1;entryY=0.5;entryDx=0;entryDy=0;" parent="1" source="38" target="54" edge="1">
                    <mxGeometry x="-1" relative="1" as="geometry">
                        <mxPoint x="330" y="390" as="targetPoint"/>
                        <Array as="points">
                            <mxPoint x="480" y="370"/>
                            <mxPoint x="390" y="370"/>
                            <mxPoint x="390" y="380"/>
                            <mxPoint x="370" y="380"/>
                            <mxPoint x="370" y="390"/>
                        </Array>
                    </mxGeometry>
                </mxCell>
                <mxCell id="43" value="No" style="edgeStyle=orthogonalEdgeStyle;html=1;verticalAlign=bottom;endArrow=none;endSize=8;strokeColor=#ff0000;entryX=1;entryY=0.5;entryDx=0;entryDy=0;exitX=0;exitY=0.5;exitDx=0;exitDy=0;" parent="1" source="21" target="42" edge="1">
                    <mxGeometry relative="1" as="geometry">
                        <mxPoint x="20" y="190" as="targetPoint"/>
                        <mxPoint x="480" y="292" as="sourcePoint"/>
                        <Array as="points">
                            <mxPoint x="385" y="272"/>
                            <mxPoint x="385" y="232"/>
                        </Array>
                    </mxGeometry>
                </mxCell>
                <mxCell id="42" value="Invalid user" style="rounded=1;whiteSpace=wrap;html=1;arcSize=40;fontColor=#000000;fillColor=#ffffc0;strokeColor=#ff0000;" parent="1" vertex="1">
                    <mxGeometry x="210" y="212" width="120" height="40" as="geometry"/>
                </mxCell>
                <mxCell id="58" style="edgeStyle=none;html=1;entryX=1;entryY=0.5;entryDx=0;entryDy=0;strokeColor=#EB0203;" parent="1" source="52" target="56" edge="1">
                    <mxGeometry relative="1" as="geometry">
                        <Array as="points">
                            <mxPoint x="480" y="450"/>
                        </Array>
                    </mxGeometry>
                </mxCell>
                <mxCell id="52" value="Save Transaction" style="rounded=1;whiteSpace=wrap;html=1;arcSize=40;fontColor=#000000;fillColor=#ffffc0;strokeColor=#ff0000;" parent="1" vertex="1">
                    <mxGeometry x="420" y="380" width="120" height="40" as="geometry"/>
                </mxCell>
                <mxCell id="55" style="edgeStyle=none;html=1;entryX=0.25;entryY=1;entryDx=0;entryDy=0;strokeColor=#EB0203;" parent="1" source="54" target="34" edge="1">
                    <mxGeometry relative="1" as="geometry">
                        <Array as="points">
                            <mxPoint x="40" y="390"/>
                        </Array>
                    </mxGeometry>
                </mxCell>
                <mxCell id="54" value="Insufficient balance" style="rounded=1;whiteSpace=wrap;html=1;arcSize=40;fontColor=#000000;fillColor=#ffffc0;strokeColor=#ff0000;" parent="1" vertex="1">
                    <mxGeometry x="220" y="370" width="120" height="40" as="geometry"/>
                </mxCell>
                <mxCell id="59" style="edgeStyle=none;html=1;entryX=0.365;entryY=0.99;entryDx=0;entryDy=0;entryPerimeter=0;strokeColor=#EB0203;" parent="1" source="56" target="34" edge="1">
                    <mxGeometry relative="1" as="geometry">
                        <Array as="points">
                            <mxPoint x="54" y="450"/>
                        </Array>
                    </mxGeometry>
                </mxCell>
                <mxCell id="60" value="Yes" style="edgeLabel;html=1;align=center;verticalAlign=middle;resizable=0;points=[];" parent="59" vertex="1" connectable="0">
                    <mxGeometry x="-0.2876" relative="1" as="geometry">
                        <mxPoint as="offset"/>
                    </mxGeometry>
                </mxCell>
                <mxCell id="63" style="edgeStyle=none;html=1;entryX=1;entryY=0.5;entryDx=0;entryDy=0;strokeColor=#EB0203;" parent="1" source="56" edge="1">
                    <mxGeometry relative="1" as="geometry">
                        <Array as="points">
                            <mxPoint x="280" y="500"/>
                        </Array>
                        <mxPoint x="102" y="500" as="targetPoint"/>
                    </mxGeometry>
                </mxCell>
                <mxCell id="56" value="New&lt;br&gt;Transaction" style="rhombus;whiteSpace=wrap;html=1;fillColor=#ffffc0;strokeColor=#ff0000;gradientColor=#2e2828;" parent="1" vertex="1">
                    <mxGeometry x="220" y="420" width="120" height="60" as="geometry"/>
                </mxCell>
                <mxCell id="64" value="" style="ellipse;html=1;shape=endState;fillColor=#000000;strokeColor=#ff0000;" vertex="1" parent="1">
                    <mxGeometry x="62" y="480" width="40" height="40" as="geometry"/>
                </mxCell>
            </root>
        </mxGraphModel>
    </diagram>
</mxfile>